PathFileType	4	(X/Y/Z)	Patient4_TMGait_0pt2_01_right_19.trc.trc
DataRate	CameraRate	NumFrames	NumMarkers	Units	OrigDataRate	OrigDataStartFrame	OrigNumFrames
42.682926829268	42.682926829268	4	33	mm	42.682926829268	18	       141
Frame#	Time	Sacral			L.Shoulder			Chest			R.Shoulder			Neck			R.ASIS			L.ASIS			R.Thigh.Superior			R.Thigh.Lateral			R.Thigh.Inferior			R.Patella			L.Thigh.Superior			L.Thigh.Lateral			L.Thigh.Inferior			L.Patella			L.Shank.Superior			L.Shank.Lateral			L.Shank.Inferior			R.Shank.Superior			R.Shank.Lateral			R.Shank.Inferior			R.Heel			R.Midfoot.Superior			R.Midfoot.Lateral			R.Toe			L.Heel			L.Midfoot.Lateral			L.Midfoot.Superior			L.Toe			L.Elbow			L.Wrist			R.Elbow			R.Wrist			
		X1	Y1	Z1	X2	Y2	Z2	X3	Y3	Z3	X4	Y4	Z4	X5	Y5	Z5	X6	Y6	Z6	X7	Y7	Z7	X8	Y8	Z8	X9	Y9	Z9	X10	Y10	Z10	X11	Y11	Z11	X12	Y12	Z12	X13	Y13	Z13	X14	Y14	Z14	X15	Y15	Z15	X16	Y16	Z16	X17	Y17	Z17	X18	Y18	Z18	X19	Y19	Z19	X20	Y20	Z20	X21	Y21	Z21	X22	Y22	Z22	X23	Y23	Z23	X24	Y24	Z24	X25	Y25	Z25	X26	Y26	Z26	X27	Y27	Z27	X28	Y28	Z28	X29	Y29	Z29	X30	Y30	Z30	X31	Y31	Z31	X32	Y32	Z32	X33	Y33	Z33	

18	42.998285714286	680.136434196006	999.863079723803	377.095554577360	908.158332370837	1430.948836549684	248.260658705728	956.823492547336	1360.066965101512	431.782812043912	825.756537556995	1431.290975946452	574.762189075023	841.048666987144	1490.712912701451	397.236620588663	879.921667322965	942.960454236619	546.634148117323	924.905530839528	955.202886187184	275.036590858495	958.635177410838	764.595634725791	528.584863397861	904.065487963623	648.423213143513	598.734701039565	995.369496166312	604.161418733553	527.465207107338	1023.221377974067	517.152210298707	550.010739674137	959.062775825055	738.029340247431	320.306984177607	880.835294228687	615.886534036787	254.660830749204	949.306714676098	543.794954011334	338.584066436371	945.663149786796	472.381563496219	350.781509854200	906.622224043999	399.745546177783	341.835324830621	811.502059336003	295.045762173010	280.528855093873	830.780512022803	183.353397712079	363.754057418701	995.576528899188	428.209159863912	564.620548027219	924.605654439694	328.859000856176	636.362618415652	979.594984751848	228.730591332542	591.740668784342	858.786074661523	49.532887428277	580.669232917483	1029.965028386361	113.321931964255	613.409627184064	946.621393011497	43.711510863978	650.829100781747	1151.829532834425	68.437555253475	633.762862995882	680.993862777512	39.089512640011	393.840618359219	763.001896592431	35.491002486693	321.197616788530	844.013403196831	94.552377500423	357.208692833715	974.194978152629	41.469951537299	342.158060080748	1040.432168942888	1121.358042569983	108.093473887369	1281.336856070951	1040.284924947732	166.415309023163	650.258023958540	1125.546907970749	646.471679512547	623.153271146745	866.108926989286	653.744730014340	
19	43.021714285714	680.486964872829	1000.732661596691	378.540900416982	910.522133353532	1431.062743593712	251.117077003259	956.988463979823	1360.782232116260	435.466509597251	824.203028821596	1432.815243923304	576.546238620260	841.888356990384	1491.346495932616	399.223341003823	878.546311917232	943.493825465504	549.921299459123	926.102034879877	955.797276039990	278.660148907373	956.749808483719	764.716216371518	532.643973224901	900.429538465526	648.156214516561	601.481634614697	992.578416995086	604.160814181623	531.483719688312	1019.644770838573	517.873948273707	553.007717945451	957.443175334120	737.503650552395	323.001523180392	877.753026107391	616.642104441498	256.153173297758	944.946918827479	543.337764373845	339.790850880904	940.334595205776	472.179643047123	351.711615295681	901.513288842666	399.977855039634	342.466492587485	806.541639894121	295.340602660866	280.985988680827	825.909869179973	183.478276372103	363.943599888705	993.962897106699	428.612759801494	567.150114532826	924.949760781168	327.780583440065	638.653435580704	981.700994128032	228.853497858862	593.580280090579	863.616031531699	48.956084765838	582.057656681285	1034.508777249081	113.079724656800	614.598104884000	951.591578122789	43.061430862878	651.814839294023	1156.374665134209	68.335799452511	633.984845827989	676.241432039137	39.080305363180	393.807825565236	758.254620710933	35.473872022670	321.178751170640	839.259745268753	94.530876818284	357.218056789788	969.450533511274	41.425989780859	342.171152808887	1045.454019736046	1121.679876209032	113.921762639222	1287.835044050933	1048.289282389119	175.362240150734	648.471287146552	1126.998837932369	645.711880985420	625.992086629048	867.022474966446	652.184503235381	
20	43.045142857143	680.899006629102	1001.259464638309	380.543840192138	912.460233529468	1430.881842715508	254.283358213729	957.239538545272	1361.152025702245	439.268130276890	823.136665298630	1433.847628501403	578.827512517403	842.729743179030	1491.646380199772	401.689984670167	877.495973022282	943.580701025434	553.282054901154	927.216653706612	956.121769408786	282.354302134664	955.179241058717	764.256866312581	536.593357642270	897.120892565721	647.386341537207	604.108465423010	990.011771083552	603.621564264649	535.208399022250	1016.072275456317	517.759682046939	555.749330839463	956.100394221811	736.875265135088	325.815106042720	875.072353442449	617.191174149766	257.870945456698	941.125052745274	542.757952774867	341.183410720566	935.626662732842	471.778668388528	352.808952175448	896.906410232470	400.003704341653	343.277331649802	801.914361386921	295.594499591664	281.560249256293	821.196336791666	183.503697752031	364.198869633774	991.730386414403	428.277415013654	569.467866036018	923.980535078042	326.627254343238	640.695933147681	981.609594108041	228.588601022761	595.116042988526	864.903347050257	49.108596373080	583.164836624139	1035.831056672805	112.339246428772	615.388209000366	952.891027203654	42.749058209365	652.591277842049	1157.327333868005	66.987755412987	634.074443329313	671.487431035332	39.065857051290	393.776031575805	753.505731527835	35.448403760868	321.159944303276	834.506671428556	94.501113234477	357.240337728468	964.707624149324	41.373346151145	342.182686251161	1049.372020064657	1121.221992594908	120.187955900839	1292.764966309044	1054.576234060120	184.596648051812	648.589404746014	1127.040243811289	645.991528807534	631.910224244945	866.406993662427	651.872081011422	
21	43.068571428571	681.372981608506	1001.479552986173	383.087316902602	914.041582990550	1430.422437308316	257.761127661176	957.624097843960	1361.177197806585	443.207140905394	822.589127287896	1434.400708088661	581.631770886259	843.608340940101	1491.626083992192	404.643962991867	876.770114381684	943.247232787557	556.752751674190	928.255374976361	956.167651429330	286.151499923781	953.894441707676	763.218109274873	540.395143688593	894.188341665927	646.155805281323	606.624908732458	987.639952498752	602.556314193198	538.546558976207	1012.546633990273	516.889285643021	558.166273596539	955.062923654118	736.137951450844	328.801524645429	872.859701692036	617.514924288843	259.862093291125	937.897717831913	542.047401011887	342.837950634715	931.605955374933	471.164853774735	354.144694879440	892.845183181131	399.808231233534	344.324825284904	797.658545459205	295.811996734514	282.283978071364	816.655239151866	183.424616960466	364.539219179478	989.026705721284	427.247620542397	571.521893411745	921.989988113570	325.262147312473	642.502846313681	979.755698308437	227.811430792688	596.308586864260	863.303329556683	49.473739106869	584.047228509046	1034.527199851465	111.072754065634	615.731607927357	951.263599229373	42.499505798013	653.188855043897	1155.486594984755	64.678587180216	633.965959749211	666.736714820555	39.048791324832	393.744836162366	748.759330026624	35.415312322875	321.143630051536	829.759197609628	94.463381906554	357.278454565197	959.970119293041	41.310006901898	342.191958510370	1052.233179068911	1120.047499402135	126.759518377123	1296.247164534576	1059.141063221572	193.944754320531	650.397148048518	1125.846631840667	647.393705639351	640.405518479087	864.581437119240	653.012532478073	
